RBDS001runT25_grf
version=1
nRows=37
nColumns=19
inDegrees=no
endheader
time	ground_force_r_vx	ground_force_r_vy	ground_force_r_vz	ground_force_r_px	ground_force_r_py	ground_force_r_pz	ground_torque_r_x	ground_torque_r_y	ground_torque_r_z	ground_force_l_vx	ground_force_l_vy	ground_force_l_vz	ground_force_l_px	ground_force_l_py	ground_force_l_pz	ground_torque_l_x	ground_torque_l_y	ground_torque_l_z
     15.00000000	      0.00000000	      0.00000000	      0.00000000	      0.00000000	      0.00000000	      0.00000000	      0.00000000	      0.00000000	      0.00000000	    -69.52335075	    421.38436529	     11.70937664	      2.51289417	      0.00000000	      0.98963116	     -1.00849139	      2.54638492	      0.85903051
     15.00333333	      0.00000000	      0.00000000	      0.00000000	      0.00000000	      0.00000000	      0.00000000	      0.00000000	      0.00000000	      0.00000000	    -72.46838022	    474.08413283	      9.54883426	      2.44322553	      0.00000000	      0.98145743	     -0.97101730	      2.73162896	      0.82724597
     15.00666667	      0.00000000	      0.00000000	      0.00000000	      0.00000000	      0.00000000	      0.00000000	      0.00000000	      0.00000000	      0.00000000	    -75.50166772	    529.01002344	      7.23937661	      2.47176757	      0.00000000	      1.00492114	     -0.92112321	      2.89233990	      0.78001080
     15.01000000	      0.00000000	      0.00000000	      0.00000000	      0.00000000	      0.00000000	      0.00000000	      0.00000000	      0.00000000	      0.00000000	    -78.68391456	    585.71690751	      4.87729007	      2.44369313	      0.00000000	      0.98777230	     -0.86451057	      3.04169935	      0.72022658
     15.01333333	      0.00000000	      0.00000000	      0.00000000	      0.00000000	      0.00000000	      0.00000000	      0.00000000	      0.00000000	      0.00000000	    -82.00151072	    643.66391657	      2.49805546	      2.42960064	      0.00000000	      1.00215036	     -0.80529560	      3.18090133	      0.65173614
     15.01666667	      0.00000000	      0.00000000	      0.00000000	      0.00000000	      0.00000000	      0.00000000	      0.00000000	      0.00000000	      0.00000000	    -85.37251199	    702.23461120	      0.08894021	      2.41321361	      0.00000000	      1.00493162	     -0.74604701	      3.30020391	      0.57852972
     15.02000000	      0.00000000	      0.00000000	      0.00000000	      0.00000000	      0.00000000	      0.00000000	      0.00000000	      0.00000000	      0.00000000	    -88.68122265	    760.76867245	     -2.36442432	      2.41324674	      0.00000000	      0.99768087	     -0.68841036	      3.38980772	      0.50392743
     15.02333333	      0.00000000	      0.00000000	      0.00000000	      0.00000000	      0.00000000	      0.00000000	      0.00000000	      0.00000000	      0.00000000	    -91.81678424	    818.60614041	     -4.83828522	      2.40511132	      0.00000000	      1.00915622	     -0.63382605	      3.44726962	      0.43059117
     15.02666667	      0.00000000	      0.00000000	      0.00000000	      0.00000000	      0.00000000	      0.00000000	      0.00000000	      0.00000000	      0.00000000	    -94.69651165	    875.12479786	     -7.25604985	      2.39280233	      0.00000000	      1.01249957	     -0.58349159	      3.47649947	      0.36077121
     15.03000000	      0.00000000	      0.00000000	      0.00000000	      0.00000000	      0.00000000	      0.00000000	      0.00000000	      0.00000000	      0.00000000	    -97.27038104	    929.75990459	     -9.48504827	      2.39535143	      0.00000000	      1.00781405	     -0.53783340	      3.48262712	      0.29620173
     15.03333333	      0.00000000	      0.00000000	      0.00000000	      0.00000000	      0.00000000	      0.00000000	      0.00000000	      0.00000000	      0.00000000	    -99.51242175	    982.01522331	    -11.34971403	      2.36775877	      0.00000000	      1.01622525	     -0.49703412	      3.47464982	      0.23796006
     15.03666667	      0.00000000	      0.00000000	      0.00000000	      0.00000000	      0.00000000	      0.00000000	      0.00000000	      0.00000000	      0.00000000	   -101.40873468	   1031.47074848	    -12.67012432	      2.38486178	      0.00000000	      1.01613828	     -0.46165176	      3.46795522	      0.18667620
     15.04000000	      0.00000000	      0.00000000	      0.00000000	      0.00000000	      0.00000000	      0.00000000	      0.00000000	      0.00000000	      0.00000000	   -102.94498303	   1077.79078032	    -13.29712236	      2.34970847	      0.00000000	      1.01746176	     -0.43197806	      3.47683816	      0.14276828
     15.04333333	      0.00000000	      0.00000000	      0.00000000	      0.00000000	      0.00000000	      0.00000000	      0.00000000	      0.00000000	      0.00000000	   -104.09730475	   1120.73404985	    -13.12603680	      2.36992924	      0.00000000	      1.02202992	     -0.40771297	      3.51059714	      0.10637468
     15.04666667	      0.00000000	      0.00000000	      0.00000000	      0.00000000	      0.00000000	      0.00000000	      0.00000000	      0.00000000	      0.00000000	   -104.83110536	   1160.15922339	    -12.10875112	      2.34906784	      0.00000000	      1.01393227	     -0.38825756	      3.57419020	      0.07738876
     15.05000000	      0.00000000	      0.00000000	      0.00000000	      0.00000000	      0.00000000	      0.00000000	      0.00000000	      0.00000000	      0.00000000	   -105.10377593	   1196.02263999	    -10.25923267	      2.33629118	      0.00000000	      1.02080487	     -0.37281267	      3.66789768	      0.05564915
     15.05333333	      0.00000000	      0.00000000	      0.00000000	      0.00000000	      0.00000000	      0.00000000	      0.00000000	      0.00000000	      0.00000000	   -104.86774269	   1228.37079439	     -7.63560176	      2.34602237	      0.00000000	      1.01733353	     -0.36047212	      3.78927339	      0.04088109
     15.05666667	      0.00000000	      0.00000000	      0.00000000	      0.00000000	      0.00000000	      0.00000000	      0.00000000	      0.00000000	      0.00000000	   -104.07112614	   1257.32715522	     -4.32091512	      2.32837750	      0.00000000	      1.01483403	     -0.35017925	      3.93367975	      0.03264169
     15.06000000	      0.00000000	      0.00000000	      0.00000000	      0.00000000	      0.00000000	      0.00000000	      0.00000000	      0.00000000	      0.00000000	   -102.65804767	   1283.07083875	     -0.41832053	      2.33128963	      0.00000000	      1.01720682	     -0.34082767	      4.09531379	      0.03042411
     15.06333333	      0.00000000	      0.00000000	      0.00000000	      0.00000000	      0.00000000	      0.00000000	      0.00000000	      0.00000000	      0.00000000	   -100.57181269	   1305.80978530	      3.95589428	      2.31386222	      0.00000000	      1.01534433	     -0.33155395	      4.26988617	      0.03365723
     15.06666667	      0.00000000	      0.00000000	      0.00000000	      0.00000000	      0.00000000	      0.00000000	      0.00000000	      0.00000000	      0.00000000	    -97.75954928	   1325.75582289	      8.68199041	      2.31853260	      0.00000000	      1.01309287	     -0.32166393	      4.45360177	      0.04166721
     15.07000000	      0.00000000	      0.00000000	      0.00000000	      0.00000000	      0.00000000	      0.00000000	      0.00000000	      0.00000000	      0.00000000	    -94.17778510	   1343.10805086	     13.63700316	      2.31039889	      0.00000000	      1.01463392	     -0.31057750	      4.64302319	      0.05369104
     15.07333333	      0.00000000	      0.00000000	      0.00000000	      0.00000000	      0.00000000	      0.00000000	      0.00000000	      0.00000000	      0.00000000	    -89.79740298	   1358.04209822	     18.69328761	      2.29377026	      0.00000000	      1.01460081	     -0.29785608	      4.83549082	      0.06887841
     15.07666667	      0.00000000	      0.00000000	      0.00000000	      0.00000000	      0.00000000	      0.00000000	      0.00000000	      0.00000000	      0.00000000	    -84.60759001	   1370.70018646	     23.72528871	      2.30441028	      0.00000000	      1.01237504	     -0.28304104	      5.02681176	      0.08632561
     15.08000000	      0.00000000	      0.00000000	      0.00000000	      0.00000000	      0.00000000	      0.00000000	      0.00000000	      0.00000000	      0.00000000	    -78.61769722	   1381.18469862	     28.61589757	      2.28031132	      0.00000000	      1.01375944	     -0.26569829	      5.21192903	      0.10515084
     15.08333333	      0.00000000	      0.00000000	      0.00000000	      0.00000000	      0.00000000	      0.00000000	      0.00000000	      0.00000000	      0.00000000	    -71.85612619	   1389.55885573	     33.25662826	      2.28459777	      0.00000000	      1.01119728	     -0.24555812	      5.38690038	      0.12451941
     15.08666667	      0.00000000	      0.00000000	      0.00000000	      0.00000000	      0.00000000	      0.00000000	      0.00000000	      0.00000000	      0.00000000	    -64.36812457	   1395.85173101	     37.55045477	      2.26273273	      0.00000000	      1.01199647	     -0.22245638	      5.54808351	      0.14364614
     15.09000000	      0.00000000	      0.00000000	      0.00000000	      0.00000000	      0.00000000	      0.00000000	      0.00000000	      0.00000000	      0.00000000	    -56.21140378	   1400.06283704	     41.41630681	      2.26871721	      0.00000000	      1.01041210	     -0.19630992	      5.69186439	      0.16183426
     15.09333333	      0.00000000	      0.00000000	      0.00000000	      0.00000000	      0.00000000	      0.00000000	      0.00000000	      0.00000000	      0.00000000	    -47.45026759	   1402.16808697	     44.78678927	      2.26272416	      0.00000000	      1.01013637	     -0.16716335	      5.81553517	      0.17849854
     15.09666667	      0.00000000	      0.00000000	      0.00000000	      0.00000000	      0.00000000	      0.00000000	      0.00000000	      0.00000000	      0.00000000	    -38.15172874	   1402.13027114	     47.60569047	      2.24171465	      0.00000000	      1.01141001	     -0.13518282	      5.91753105	      0.19316924
     15.10000000	      0.00000000	      0.00000000	      0.00000000	      0.00000000	      0.00000000	      0.00000000	      0.00000000	      0.00000000	      0.00000000	    -28.38402232	   1399.91039952	     49.83026338	      2.24892244	      0.00000000	      1.00851007	     -0.10060744	      5.99648182	      0.20546907
     15.10333333	      0.00000000	      0.00000000	      0.00000000	      0.00000000	      0.00000000	      0.00000000	      0.00000000	      0.00000000	      0.00000000	    -18.21574836	   1395.47455358	     51.43106108	      2.23147411	      0.00000000	      1.01136975	     -0.06370188	      6.05030743	      0.21507606
     15.10666667	      0.00000000	      0.00000000	      0.00000000	      0.00000000	      0.00000000	      0.00000000	      0.00000000	      0.00000000	      0.00000000	     -7.71501760	   1388.79573972	     52.39038727	      2.24291928	      0.00000000	      1.00832850	     -0.02478709	      6.07732917	      0.22176504
     15.11000000	      0.00000000	      0.00000000	      0.00000000	      0.00000000	      0.00000000	      0.00000000	      0.00000000	      0.00000000	      0.00000000	      3.05116015	   1379.85550070	     52.70413155	      2.21315720	      0.00000000	      1.01130409	      0.01569119	      6.07654715	      0.22542426
     15.11333333	      0.00000000	      0.00000000	      0.00000000	      0.00000000	      0.00000000	      0.00000000	      0.00000000	      0.00000000	      0.00000000	     14.01549690	   1368.64474025	     52.38256300	      2.21817665	      0.00000000	      1.01142025	      0.05716546	      6.04650608	      0.22600265
     15.11666667	      0.00000000	      0.00000000	      0.00000000	      0.00000000	      0.00000000	      0.00000000	      0.00000000	      0.00000000	      0.00000000	     25.10652804	   1355.15802451	     51.44795752	      2.21131882	      0.00000000	      1.00864516	      0.09899417	      5.98620272	      0.22353240
     15.12000000	      0.00000000	      0.00000000	      0.00000000	      0.00000000	      0.00000000	      0.00000000	      0.00000000	      0.00000000	      0.00000000	     36.24474059	   1339.38585183	     49.93251343	      2.18979756	      0.00000000	      1.01003502	      0.14048779	      5.89555582	      0.21813867
